<svg xmlns="http://www.w3.org/2000/svg" width="720" height="480" viewBox="0 0 720 480" fill="none">
<defs><linearGradient id="base" x1="100" y1="240" x2="570" y2="440" gradientUnits="userSpaceOnUse"><stop stop-color="#BFA9F5"/><stop offset="1" stop-color="#747ABB"/></linearGradient><linearGradient id="screen" x1="250" y1="100" x2="480" y2="320" gradientUnits="userSpaceOnUse"><stop stop-color="#555784"/><stop offset="1" stop-color="#292642"/></linearGradient><linearGradient id="box" x1="490" y1="190" x2="610" y2="330"><stop stop-color="#FFDCC3"/><stop offset="1" stop-color="#EBA37E"/></linearGradient><filter id="shadow" x="-30%" y="-30%" width="160%" height="180%"><feDropShadow dx="0" dy="18" stdDeviation="17" flood-color="#16112D" flood-opacity=".2"/></filter></defs>
<ellipse cx="362" cy="407" rx="260" ry="34" fill="#514774" opacity=".12"/>
<g filter="url(#shadow)"><path d="M86 312 355 186 641 321 371 451Z" fill="url(#base)"/><path d="m86 312 285 125 270-116v15L371 463 86 327Z" fill="#8582B7"/>
<path d="m220 157 204-91q13-6 17 9l33 194-203 96Z" fill="#B5B1DE"/><path d="m229 161 197-86 36 189-185 88Z" fill="url(#screen)"/><path d="m271 365 203-96 73 34q9 6-3 12l-193 94q-9 4-19 0l-91-36Z" fill="#E1DDF3"/><path d="m289 361 184-83 48 23-183 87Z" fill="#A5A0C7"/><path d="m367 383 41-19 19 9-42 20Z" fill="#C4BCD9"/>
<g transform="matrix(.88,-.39,.17,.94,248,169)"><rect width="192" height="145" rx="7" fill="#FAF8FF"/><path d="M0 7a7 7 0 0 1 7-7h178a7 7 0 0 1 7 7v21H0Z" fill="#E5DCF8"/><circle cx="12" cy="13" r="3" fill="#9E79E0"/><path d="M25 13h50" stroke="#B4A3D0" stroke-width="5" stroke-linecap="round"/><rect x="12" y="40" width="49" height="32" rx="4" fill="#E7DDF8"/><rect x="70" y="40" width="49" height="32" rx="4" fill="#D7EDF1"/><rect x="128" y="40" width="49" height="32" rx="4" fill="#FBE5D1"/><path d="M18 122v-23m21 23V89m21 33v-14m21 14V92m21 30V83" stroke="#A48AD6" stroke-width="9"/><circle cx="149" cy="106" r="21" stroke="#E7DEF4" stroke-width="9"/><path d="M149 85a21 21 0 0 1 19 30" stroke="#6EBFB5" stroke-width="9"/></g>
<path d="m477 234 75-36 85 39-77 38Z" fill="#FFE2C8"/><path d="m477 234 83 41v89l-83-42Z" fill="#E8A17D"/><path d="m560 275 77-38v89l-77 38Z" fill="#F5BE98"/><path d="m506 220 81 42 19-9-82-41Z" fill="#FFF0DE"/><path d="m587 262 19-9v28l-19 10Z" fill="#FFE7CF"/><path d="m576 310 42-19v28l-42 20Z" fill="#FFF4E7"/><path d="m582 315 29-14m-29 20 22-10" stroke="#C58F70" stroke-width="3"/>
<path d="m116 284 52-25 58 27-51 26Z" fill="#BAE9DD"/><path d="m116 284 59 28v66l-59-28Z" fill="#70B8AA"/><path d="m175 312 51-26v66l-51 26Z" fill="#95D6C7"/><path d="m137 274 58 28 14-7-59-28Z" fill="#E0F7EC"/><path d="m194 302 15-7v21l-15 7Z" fill="#DEF4E7"/>
<rect x="116" y="143" width="103" height="67" rx="12" fill="#FAF8FF" transform="rotate(-9 116 143)"/><circle cx="141" cy="164" r="11" fill="#D8F1E7"/><path d="m136 164 4 4 7-9" stroke="#50A48D" stroke-width="2.5" stroke-linecap="round"/><path d="m162 161 37-6m-65 32 62-10" stroke="#C1B2D9" stroke-width="5" stroke-linecap="round"/>
<rect x="487" y="94" width="100" height="63" rx="12" fill="#F6F3FF" transform="rotate(8 487 94)"/><path d="m502 115 19 3m-20 8 40 6m-41 4 60 9" stroke="#B7A0D7" stroke-width="5" stroke-linecap="round"/><circle cx="566" cy="122" r="9" fill="#D6EEE6"/>
</g><g fill="#C8B5EC"><circle cx="91" cy="226" r="5"/><circle cx="621" cy="166" r="4"/><path d="m345 37 3 9 9 3-9 3-3 9-3-9-9-3 9-3Z"/><path d="m657 275 2 7 7 2-7 2-2 7-2-7-7-2 7-2Z"/></g></svg>
